# xmcd
#
# Track frame offsets:
#	150
#	20787
#	46729
#	49143
#	66058
#	83140
#	101892
#	119666
#	136913
#	154215
#	174100
#	190419
#
# Disc length: 3129 seconds
#
# Revision: 0
# Processed by: cddbd v1.4PL0 Copyright (c) Steve Scherf et al.
# Submitted via: audiograbber 1.82.02
#
DISCID=a30c370c
DTITLE=Little Milton - Welcome to Little Milton
DYEAR=1999
DGENRE=Blues
TTITLE0=Little Milton and Gov. Mule - When The Blues Comes Knocking
TTITLE1=Little Milton - Right to Sing the Blues
TTITLE2=Little Milton and John Sinclair - Recitation
TTITLE3=Little Milton and Susan Tedeschi - Mother Earth
TTITLE4=Little Milton and Dave Allen - Never Trust A Woman
TTITLE5=Little Milton  and Lucinda Williams - Love Hurts
TTITLE6=Little Milton and Keb Mo - Gimme' My Broom
TTITLE7=Little Milton and Peter Wolf - Two Loves
TTITLE8=Little Milton - Lump on Your Stump
TTITLE9=Little Milton and G. Love - Me and My Woman
TTITLE10=Little Milton and Delbert McClinton - Some Kind Of Wonderful
TTITLE11=Little Milton and Gov. Mule - I Can't Quit You Baby
EXTD=
EXTT0=
EXTT1=
EXTT2=
EXTT3=
EXTT4=
EXTT5=
EXTT6=
EXTT7=
EXTT8=
EXTT9=
EXTT10=
EXTT11=
PLAYORDER=
